# xmcd
#
# Track frame offsets: 
#        150
#        13866
#        32395
#        52021
#        70841
#        86848
#        101740
#        115237
#        136128
#        150585
#
# Disc length: 2235 seconds
#
# Revision: 0
# Processed by: cddbd v1.5.1PL0 Copyright (c) Steve Scherf et al.
# Submitted via: ExactAudioCopy v0.95b3
#
DISCID=7e08b90a
DTITLE=Kasie Smith - Girl in a hurry
DYEAR=2003
DGENRE=Country
TTITLE0=Girl in a hurry
TTITLE1=I probably will
TTITLE2=This is the heartache
TTITLE3=I want the fairy tale
TTITLE4=The enemy
TTITLE5=Love will get us there
TTITLE6=How you make me feel about me
TTITLE7=Sway
TTITLE8=Burned
TTITLE9=I'd like to help you with that
EXTD=Whish Records\nWR6713
EXTT0=
EXTT1=
EXTT2=
EXTT3=
EXTT4=
EXTT5=
EXTT6=
EXTT7=
EXTT8=
EXTT9=
PLAYORDER=
